<svg id="visual" viewBox="0 0 675 900" width="675" height="900" xmlns="http://www.w3.org/2000/svg" xmlns:xlink="http://www.w3.org/1999/xlink" version="1.1"><rect x="0" y="0" width="675" height="900" fill="#f7f6f4"></rect><defs><linearGradient id="grad1_0" x1="0%" y1="0%" x2="100%" y2="100%"><stop offset="30%" stop-color="#f7f6f4" stop-opacity="1"></stop><stop offset="70%" stop-color="#f7f6f4" stop-opacity="1"></stop></linearGradient></defs><defs><linearGradient id="grad2_0" x1="0%" y1="0%" x2="100%" y2="100%"><stop offset="30%" stop-color="#f7f6f4" stop-opacity="1"></stop><stop offset="70%" stop-color="#f7f6f4" stop-opacity="1"></stop></linearGradient></defs><g transform="translate(675, 0)"><path d="M0 253.1C-45.5 247.2 -91.1 241.3 -126.6 219.2C-162.1 197.1 -187.6 158.7 -207 119.5C-226.4 80.3 -239.8 40.1 -253.1 0L0 0Z" fill="#e6e6e6"></path></g><g transform="translate(0, 900)"><path d="M0 -253.1C35.6 -231.9 71.2 -210.7 111 -192.3C150.8 -173.8 194.8 -158.1 219.2 -126.6C243.6 -95 248.4 -47.5 253.1 0L0 0Z" fill="#e6e6e6"></path></g></svg>