<svg id="visual" viewBox="0 0 675 900" width="675" height="900" xmlns="http://www.w3.org/2000/svg" xmlns:xlink="http://www.w3.org/1999/xlink" version="1.1"><rect x="0" y="0" width="675" height="900" fill="#f7f6f4"></rect><defs><linearGradient id="grad1_0" x1="0%" y1="0%" x2="100%" y2="100%"><stop offset="30%" stop-color="#f7f6f4" stop-opacity="1"></stop><stop offset="70%" stop-color="#f7f6f4" stop-opacity="1"></stop></linearGradient></defs><defs><linearGradient id="grad2_0" x1="0%" y1="0%" x2="100%" y2="100%"><stop offset="30%" stop-color="#f7f6f4" stop-opacity="1"></stop><stop offset="70%" stop-color="#f7f6f4" stop-opacity="1"></stop></linearGradient></defs><g transform="translate(675, 0)"><path d="M0 506.3C-31.6 456.5 -63.2 406.7 -107.9 402.8C-152.7 398.9 -210.7 441 -253.1 438.4C-295.6 435.9 -322.5 388.7 -347.9 347.9C-373.3 307.1 -397.1 272.7 -405.3 234C-413.5 195.3 -406 152.3 -420.2 112.6C-434.4 72.9 -470.3 36.4 -506.2 0L0 0Z" fill="#e6e6e6"></path></g><g transform="translate(0, 900)"><path d="M0 -506.2C39.2 -485.7 78.5 -465.2 122.7 -457.8C166.9 -450.5 216 -456.2 253.1 -438.4C290.2 -420.7 315.3 -379.4 342.9 -342.9C370.6 -306.5 400.9 -274.7 408.8 -236C416.6 -197.3 401.9 -151.5 414.4 -111C426.9 -70.5 466.6 -35.3 506.3 0L0 0Z" fill="#e6e6e6"></path></g></svg>