<svg id="visual" viewBox="0 0 675 900" width="675" height="900" xmlns="http://www.w3.org/2000/svg" xmlns:xlink="http://www.w3.org/1999/xlink" version="1.1"><rect x="0" y="0" width="675" height="900" fill="#001220"></rect><defs><linearGradient id="grad1_0" x1="0%" y1="0%" x2="100%" y2="100%"><stop offset="30%" stop-color="#001220" stop-opacity="1"></stop><stop offset="70%" stop-color="#001220" stop-opacity="1"></stop></linearGradient></defs><defs><linearGradient id="grad2_0" x1="0%" y1="0%" x2="100%" y2="100%"><stop offset="30%" stop-color="#001220" stop-opacity="1"></stop><stop offset="70%" stop-color="#001220" stop-opacity="1"></stop></linearGradient></defs><g transform="translate(675, 0)"><path d="M0 506.3C-73.9 507.1 -147.7 507.9 -193.7 467.7C-239.7 427.5 -257.9 346.2 -294.2 294.2C-330.4 242.1 -384.8 219.4 -423.1 175.3C-461.5 131.1 -483.9 65.6 -506.2 0L0 0Z" fill="#d6d6d6"></path></g><g transform="translate(0, 900)"><path d="M0 -506.2C69.3 -502.8 138.5 -499.4 193.7 -467.7C248.9 -436 290.1 -376.1 322.4 -322.4C354.8 -268.8 378.3 -221.5 407.4 -168.8C436.6 -116.1 471.4 -58 506.3 0L0 0Z" fill="#d6d6d6"></path></g></svg>