<svg id="visual" viewBox="0 0 675 900" width="675" height="900" xmlns="http://www.w3.org/2000/svg" xmlns:xlink="http://www.w3.org/1999/xlink" version="1.1"><rect x="0" y="0" width="675" height="900" fill="#f7f6f4"></rect><defs><linearGradient id="grad1_0" x1="0%" y1="0%" x2="100%" y2="100%"><stop offset="30%" stop-color="#f7f6f4" stop-opacity="1"></stop><stop offset="70%" stop-color="#f7f6f4" stop-opacity="1"></stop></linearGradient></defs><defs><linearGradient id="grad2_0" x1="0%" y1="0%" x2="100%" y2="100%"><stop offset="30%" stop-color="#f7f6f4" stop-opacity="1"></stop><stop offset="70%" stop-color="#f7f6f4" stop-opacity="1"></stop></linearGradient></defs><g transform="translate(675, 0)"><path d="M0 450C-88.3 443.8 -176.6 437.6 -225 389.7C-273.4 341.9 -281.8 252.4 -312.6 180.5C-343.5 108.6 -396.7 54.3 -450 0L0 0Z" fill="#e6e6e6"></path></g><g transform="translate(0, 900)"><path d="M0 -450C63.6 -412.9 127.3 -375.8 198 -342.9C268.7 -310.1 346.5 -281.5 389.7 -225C432.9 -168.5 441.4 -84.3 450 0L0 0Z" fill="#e6e6e6"></path></g></svg>